<?xml version="1.0" encoding="utf-8"?>
<!-- Generator: Adobe Illustrator 17.1.0, SVG Export Plug-In . SVG Version: 6.00 Build 0)  -->
<svg version="1.2" baseProfile="tiny" id="Layer_1" xmlns="http://www.w3.org/2000/svg" xmlns:xlink="http://www.w3.org/1999/xlink"
	 x="0px" y="0px" viewBox="0 0 9 4.8" xml:space="preserve">
<g>
	<g>
		<polygon fill="none" points="8.6,0.1 8.6,0.1 8.6,0.1 		"/>
		<path d="M8.7,0.2L4.5,4.4L0.3,0.2H0.2l0,0l0,0.1l4.3,4.3c0,0,0,0,0,0L8.7,0.2C8.8,0.3,8.8,0.2,8.7,0.2L8.6,0.1l0,0L8.7,0.2z"/>
		<path d="M0,0.6l4.1,4.1h0.8L9,0.6V0H8.4L4.5,3.9L0.6,0H0V0.6z M8.6,0.1l0.2,0.1c0,0,0,0.1,0,0.1L4.5,4.5c0,0,0,0,0,0L0.2,0.3
			l0-0.1l0,0h0.1l4.2,4.2l4.2-4.2L8.6,0.1L8.6,0.1L8.6,0.1z"/>
	</g>
</g>
</svg>
