<?xml version="1.0" encoding="utf-8"?>
<!-- Generator: Adobe Illustrator 17.1.0, SVG Export Plug-In . SVG Version: 6.00 Build 0)  -->
<svg version="1.2" baseProfile="tiny" id="Layer_1" xmlns="http://www.w3.org/2000/svg" xmlns:xlink="http://www.w3.org/1999/xlink"
	 x="0px" y="0px" viewBox="0 0 13.3 12.3" xml:space="preserve">
<g>
	<path fill="#363636" d="M0.5,12.3h12.4c0.3,0,0.5-0.2,0.5-0.5V1.3c0-0.3-0.2-0.5-0.5-0.5h-2.3V0.5c0-0.3-0.2-0.5-0.5-0.5
		C9.8,0,9.6,0.2,9.6,0.5v0.4H3.8V0.5C3.8,0.2,3.6,0,3.4,0C3.1,0,2.9,0.2,2.9,0.5v0.4H0.5C0.2,0.9,0,1.1,0,1.3v10.5
		C0,12.1,0.2,12.3,0.5,12.3L0.5,12.3z M0.9,1.8h1.9v0.3c0,0.3,0.2,0.5,0.5,0.5c0.3,0,0.5-0.2,0.5-0.5V1.8h5.8v0.3
		c0,0.3,0.2,0.5,0.5,0.5c0.3,0,0.5-0.2,0.5-0.5V1.8h1.9V3H0.9V1.8z M0.9,4h11.5v7.4H0.9V4z M0.9,4"/>
	<path fill="#363636" d="M10.1,6.1H3.3C3,6.1,2.8,6.4,2.8,6.6c0,0.3,0.2,0.5,0.5,0.5h6.8c0.3,0,0.5-0.2,0.5-0.5
		C10.6,6.4,10.3,6.1,10.1,6.1L10.1,6.1z M10.1,6.1"/>
	<path fill="#363636" d="M6.7,8.4H3.3C3,8.4,2.8,8.6,2.8,8.9c0,0.3,0.2,0.5,0.5,0.5h3.4c0.3,0,0.5-0.2,0.5-0.5
		C7.2,8.6,7,8.4,6.7,8.4L6.7,8.4z M6.7,8.4"/>
</g>
</svg>
