<?xml version="1.0" encoding="utf-8"?>
<!-- Generator: Adobe Illustrator 17.1.0, SVG Export Plug-In . SVG Version: 6.00 Build 0)  -->
<svg version="1.2" baseProfile="tiny" id="Layer_1" xmlns="http://www.w3.org/2000/svg" xmlns:xlink="http://www.w3.org/1999/xlink"
	 x="0px" y="0px" viewBox="0 0 29.9 23.1" xml:space="preserve">
<g>
	<g>
		<rect x="12.5" y="19" fill="none" width="5" height="3"/>
		<rect x="9.5" y="19" fill="none" width="2" height="3"/>
		<polygon fill="none" points="1.2,9 8.5,9 8.5,5.5 2.4,5.5 		"/>
		<rect x="1.5" y="10" fill="none" width="7" height="12"/>
		<rect x="21.4" y="10" fill="none" width="7" height="12"/>
		<rect x="18.5" y="19" fill="none" width="2" height="3"/>
		<polygon fill="none" points="21.4,5.5 21.4,9 28.7,9 27.6,5.5 		"/>
		<polygon fill="none" points="9.5,2.7 9.5,18 20.4,18 20.4,2.7 15,1.1 		"/>
		<path   d="M29.4,22V10c0.2,0,0.3-0.1,0.4-0.2c0.1-0.1,0.1-0.3,0.1-0.4l-1.5-4.5c-0.1-0.2-0.3-0.3-0.5-0.3h-6.5V3h0
			c0.2,0,0.4-0.1,0.5-0.4C22,2.4,21.8,2.1,21.6,2l-6.5-1.9c-0.1,0-0.2,0-0.3,0L8.3,2C8.1,2.1,7.9,2.4,8,2.6C8.1,2.8,8.3,3,8.5,3v1.6
			H2c-0.2,0-0.4,0.1-0.5,0.3L0,9.4C0,9.5,0,9.7,0.1,9.8C0.2,9.9,0.3,10,0.5,10v12C0.2,22,0,22.2,0,22.5C0,22.8,0.2,23,0.5,23h28.9
			c0.3,0,0.5-0.2,0.5-0.5C29.9,22.2,29.7,22,29.4,22z M8.5,22h-7V10h7V22z M8.5,9H1.2l1.2-3.5h6.1V9z M11.5,22h-2v-3h2V22z M17.5,22
			h-5v-3h5V22z M20.4,22h-2v-3h2V22z M20.4,18h-11V2.7L15,1.1l5.5,1.6V18z M28.4,22h-7V10h7V22z M21.4,9V5.5h6.1L28.7,9H21.4z"/>
	</g>
	<path   d="M7,6.5C6.7,6.5,6.5,6.7,6.5,7v1c0,0.3,0.2,0.5,0.5,0.5c0.3,0,0.5-0.2,0.5-0.5V7C7.5,6.7,7.3,6.5,7,6.5
		L7,6.5z M7,6.5"/>
	<path   d="M5,6.5C4.7,6.5,4.5,6.7,4.5,7v1c0,0.3,0.2,0.5,0.5,0.5c0.3,0,0.5-0.2,0.5-0.5V7C5.5,6.7,5.3,6.5,5,6.5
		L5,6.5z M5,6.5"/>
	<path   d="M3,6.5C2.7,6.5,2.5,6.7,2.5,7v1c0,0.3,0.2,0.5,0.5,0.5c0.3,0,0.5-0.2,0.5-0.5V7C3.5,6.7,3.3,6.5,3,6.5
		L3,6.5z M3,6.5"/>
	<path   d="M26.9,8.5c0.3,0,0.5-0.2,0.5-0.5V7c0-0.3-0.2-0.5-0.5-0.5c-0.3,0-0.5,0.2-0.5,0.5v1
		C26.4,8.3,26.7,8.5,26.9,8.5L26.9,8.5z M26.9,8.5"/>
	<path   d="M24.9,8.5c0.3,0,0.5-0.2,0.5-0.5V7c0-0.3-0.2-0.5-0.5-0.5c-0.3,0-0.5,0.2-0.5,0.5v1
		C24.4,8.3,24.7,8.5,24.9,8.5L24.9,8.5z M24.9,8.5"/>
	<path   d="M22.9,8.5c0.3,0,0.5-0.2,0.5-0.5V7c0-0.3-0.2-0.5-0.5-0.5c-0.3,0-0.5,0.2-0.5,0.5v1
		C22.4,8.3,22.7,8.5,22.9,8.5L22.9,8.5z M22.9,8.5"/>
	<path   d="M7,11c-0.3,0-0.5,0.2-0.5,0.5V13c0,0.3,0.2,0.5,0.5,0.5c0.3,0,0.5-0.2,0.5-0.5v-1.5C7.5,11.2,7.3,11,7,11
		L7,11z M7,11"/>
	<path   d="M5,11c-0.3,0-0.5,0.2-0.5,0.5V13c0,0.3,0.2,0.5,0.5,0.5c0.3,0,0.5-0.2,0.5-0.5v-1.5C5.5,11.2,5.3,11,5,11
		L5,11z M5,11"/>
	<path   d="M3,11c-0.3,0-0.5,0.2-0.5,0.5V13c0,0.3,0.2,0.5,0.5,0.5c0.3,0,0.5-0.2,0.5-0.5v-1.5C3.5,11.2,3.3,11,3,11
		L3,11z M3,11"/>
	<path   d="M7,14.5c-0.3,0-0.5,0.2-0.5,0.5v1.5C6.5,16.8,6.7,17,7,17c0.3,0,0.5-0.2,0.5-0.5V15
		C7.5,14.7,7.3,14.5,7,14.5L7,14.5z M7,14.5"/>
	<path   d="M5,14.5c-0.3,0-0.5,0.2-0.5,0.5v1.5C4.5,16.8,4.7,17,5,17c0.3,0,0.5-0.2,0.5-0.5V15
		C5.5,14.7,5.3,14.5,5,14.5L5,14.5z M5,14.5"/>
	<path   d="M3,14.5c-0.3,0-0.5,0.2-0.5,0.5v1.5C2.5,16.8,2.7,17,3,17c0.3,0,0.5-0.2,0.5-0.5V15
		C3.5,14.7,3.3,14.5,3,14.5L3,14.5z M3,14.5"/>
	<path   d="M7,18c-0.3,0-0.5,0.2-0.5,0.5V20c0,0.3,0.2,0.5,0.5,0.5c0.3,0,0.5-0.2,0.5-0.5v-1.5C7.5,18.2,7.3,18,7,18
		L7,18z M7,18"/>
	<path   d="M5,18c-0.3,0-0.5,0.2-0.5,0.5V20c0,0.3,0.2,0.5,0.5,0.5c0.3,0,0.5-0.2,0.5-0.5v-1.5C5.5,18.2,5.3,18,5,18
		L5,18z M5,18"/>
	<path   d="M3,18c-0.3,0-0.5,0.2-0.5,0.5V20c0,0.3,0.2,0.5,0.5,0.5c0.3,0,0.5-0.2,0.5-0.5v-1.5C3.5,18.2,3.3,18,3,18
		L3,18z M3,18"/>
	<path   d="M26.9,13.5c0.3,0,0.5-0.2,0.5-0.5v-1.5c0-0.3-0.2-0.5-0.5-0.5c-0.3,0-0.5,0.2-0.5,0.5V13
		C26.4,13.3,26.7,13.5,26.9,13.5L26.9,13.5z M26.9,13.5"/>
	<path   d="M24.9,13.5c0.3,0,0.5-0.2,0.5-0.5v-1.5c0-0.3-0.2-0.5-0.5-0.5c-0.3,0-0.5,0.2-0.5,0.5V13
		C24.4,13.3,24.7,13.5,24.9,13.5L24.9,13.5z M24.9,13.5"/>
	<path   d="M22.9,13.5c0.3,0,0.5-0.2,0.5-0.5v-1.5c0-0.3-0.2-0.5-0.5-0.5c-0.3,0-0.5,0.2-0.5,0.5V13
		C22.4,13.3,22.7,13.5,22.9,13.5L22.9,13.5z M22.9,13.5"/>
	<path   d="M26.9,17c0.3,0,0.5-0.2,0.5-0.5V15c0-0.3-0.2-0.5-0.5-0.5c-0.3,0-0.5,0.2-0.5,0.5v1.5
		C26.4,16.8,26.7,17,26.9,17L26.9,17z M26.9,17"/>
	<path   d="M24.9,17c0.3,0,0.5-0.2,0.5-0.5V15c0-0.3-0.2-0.5-0.5-0.5c-0.3,0-0.5,0.2-0.5,0.5v1.5
		C24.4,16.8,24.7,17,24.9,17L24.9,17z M24.9,17"/>
	<path   d="M22.9,17c0.3,0,0.5-0.2,0.5-0.5V15c0-0.3-0.2-0.5-0.5-0.5c-0.3,0-0.5,0.2-0.5,0.5v1.5
		C22.4,16.8,22.7,17,22.9,17L22.9,17z M22.9,17"/>
	<path   d="M26.9,20.5c0.3,0,0.5-0.2,0.5-0.5v-1.5c0-0.3-0.2-0.5-0.5-0.5c-0.3,0-0.5,0.2-0.5,0.5V20
		C26.4,20.3,26.7,20.5,26.9,20.5L26.9,20.5z M26.9,20.5"/>
	<path   d="M24.9,20.5c0.3,0,0.5-0.2,0.5-0.5v-1.5c0-0.3-0.2-0.5-0.5-0.5c-0.3,0-0.5,0.2-0.5,0.5V20
		C24.4,20.3,24.7,20.5,24.9,20.5L24.9,20.5z M24.9,20.5"/>
	<path   d="M22.9,20.5c0.3,0,0.5-0.2,0.5-0.5v-1.5c0-0.3-0.2-0.5-0.5-0.5c-0.3,0-0.5,0.2-0.5,0.5V20
		C22.4,20.3,22.7,20.5,22.9,20.5L22.9,20.5z M22.9,20.5"/>
	<path   d="M17,13.5c0.3,0,0.5-0.2,0.5-0.5v-1.5c0-0.3-0.2-0.5-0.5-0.5c-0.3,0-0.5,0.2-0.5,0.5V13
		C16.5,13.3,16.7,13.5,17,13.5L17,13.5z M17,13.5"/>
	<path   d="M15,13.5c0.3,0,0.5-0.2,0.5-0.5v-1.5c0-0.3-0.2-0.5-0.5-0.5c-0.3,0-0.5,0.2-0.5,0.5V13
		C14.5,13.3,14.7,13.5,15,13.5L15,13.5z M15,13.5"/>
	<path   d="M13,13.5c0.3,0,0.5-0.2,0.5-0.5v-1.5c0-0.3-0.2-0.5-0.5-0.5c-0.3,0-0.5,0.2-0.5,0.5V13
		C12.5,13.3,12.7,13.5,13,13.5L13,13.5z M13,13.5"/>
	<path   d="M17,17c0.3,0,0.5-0.2,0.5-0.5V15c0-0.3-0.2-0.5-0.5-0.5c-0.3,0-0.5,0.2-0.5,0.5v1.5
		C16.5,16.8,16.7,17,17,17L17,17z M17,17"/>
	<path   d="M15,17c0.3,0,0.5-0.2,0.5-0.5V15c0-0.3-0.2-0.5-0.5-0.5c-0.3,0-0.5,0.2-0.5,0.5v1.5
		C14.5,16.8,14.7,17,15,17L15,17z M15,17"/>
	<path   d="M13,17c0.3,0,0.5-0.2,0.5-0.5V15c0-0.3-0.2-0.5-0.5-0.5c-0.3,0-0.5,0.2-0.5,0.5v1.5
		C12.5,16.8,12.7,17,13,17L13,17z M13,17"/>
	<path   d="M11,13.5c0.3,0,0.5-0.2,0.5-0.5v-1.5c0-0.3-0.2-0.5-0.5-0.5c-0.3,0-0.5,0.2-0.5,0.5V13
		C10.5,13.3,10.7,13.5,11,13.5L11,13.5z M11,13.5"/>
	<path   d="M11,17c0.3,0,0.5-0.2,0.5-0.5V15c0-0.3-0.2-0.5-0.5-0.5c-0.3,0-0.5,0.2-0.5,0.5v1.5
		C10.5,16.8,10.7,17,11,17L11,17z M11,17"/>
	<path   d="M18.9,13.5c0.3,0,0.5-0.2,0.5-0.5v-1.5c0-0.3-0.2-0.5-0.5-0.5s-0.5,0.2-0.5,0.5V13
		C18.5,13.3,18.7,13.5,18.9,13.5L18.9,13.5z M18.9,13.5"/>
	<path   d="M17,10c0.3,0,0.5-0.2,0.5-0.5V8c0-0.3-0.2-0.5-0.5-0.5c-0.3,0-0.5,0.2-0.5,0.5v1.5C16.5,9.8,16.7,10,17,10
		L17,10z M17,10"/>
	<path   d="M15,10c0.3,0,0.5-0.2,0.5-0.5V8c0-0.3-0.2-0.5-0.5-0.5c-0.3,0-0.5,0.2-0.5,0.5v1.5C14.5,9.8,14.7,10,15,10
		L15,10z M15,10"/>
	<path   d="M13,10c0.3,0,0.5-0.2,0.5-0.5V8c0-0.3-0.2-0.5-0.5-0.5c-0.3,0-0.5,0.2-0.5,0.5v1.5C12.5,9.8,12.7,10,13,10
		L13,10z M13,10"/>
	<path   d="M11,10c0.3,0,0.5-0.2,0.5-0.5V8c0-0.3-0.2-0.5-0.5-0.5c-0.3,0-0.5,0.2-0.5,0.5v1.5C10.5,9.8,10.7,10,11,10
		L11,10z M11,10"/>
	<path   d="M18.9,10c0.3,0,0.5-0.2,0.5-0.5V8c0-0.3-0.2-0.5-0.5-0.5S18.5,7.7,18.5,8v1.5C18.5,9.8,18.7,10,18.9,10
		L18.9,10z M18.9,10"/>
	<path   d="M17,6.5c0.3,0,0.5-0.2,0.5-0.5V4.5C17.5,4.3,17.2,4,17,4c-0.3,0-0.5,0.2-0.5,0.5V6
		C16.5,6.3,16.7,6.5,17,6.5L17,6.5z M17,6.5"/>
	<path   d="M15,6.5c0.3,0,0.5-0.2,0.5-0.5V4.5C15.5,4.3,15.2,4,15,4c-0.3,0-0.5,0.2-0.5,0.5V6
		C14.5,6.3,14.7,6.5,15,6.5L15,6.5z M15,6.5"/>
	<path   d="M13,6.5c0.3,0,0.5-0.2,0.5-0.5V4.5C13.5,4.3,13.2,4,13,4c-0.3,0-0.5,0.2-0.5,0.5V6
		C12.5,6.3,12.7,6.5,13,6.5L13,6.5z M13,6.5"/>
	<path   d="M11,6.5c0.3,0,0.5-0.2,0.5-0.5V4.5C11.5,4.3,11.2,4,11,4c-0.3,0-0.5,0.2-0.5,0.5V6
		C10.5,6.3,10.7,6.5,11,6.5L11,6.5z M11,6.5"/>
	<path   d="M18.9,6.5c0.3,0,0.5-0.2,0.5-0.5V4.5c0-0.3-0.2-0.5-0.5-0.5s-0.5,0.2-0.5,0.5V6C18.5,6.3,18.7,6.5,18.9,6.5
		L18.9,6.5z M18.9,6.5"/>
	<path   d="M18.9,17c0.3,0,0.5-0.2,0.5-0.5V15c0-0.3-0.2-0.5-0.5-0.5s-0.5,0.2-0.5,0.5v1.5C18.5,16.8,18.7,17,18.9,17
		L18.9,17z M18.9,17"/>
</g>
</svg>
