<?xml version="1.0" encoding="utf-8"?>
<!-- Generator: Adobe Illustrator 17.1.0, SVG Export Plug-In . SVG Version: 6.00 Build 0)  -->
<svg version="1.2" baseProfile="tiny" id="Layer_1" xmlns="http://www.w3.org/2000/svg" xmlns:xlink="http://www.w3.org/1999/xlink"
	 x="0px" y="0px" viewBox="0 0 30 30" xml:space="preserve">
<g>
	<ellipse id="XMLID_6_" fill="#FFFFFF" cx="15" cy="15" rx="15" ry="15"/>
	<path fill="#3F4652" d="M21.1,6H8.8C7.3,6,6,7.3,6,8.8v12.3c0,1.6,1.3,2.8,2.8,2.8h12.3c1.6,0,2.8-1.3,2.8-2.8V8.8
		C24,7.3,22.7,6,21.1,6z M19.2,8.1l2.3,0h0c0.2,0,0.4,0.2,0.4,0.4v2.3c0,0.2-0.2,0.4-0.4,0.4l-2.3,0c-0.2,0-0.4-0.2-0.4-0.4l0-2.3
		C18.8,8.3,19,8.1,19.2,8.1z M12.2,13.4c0.1-0.1,0.1-0.2,0.2-0.3c0.6-0.8,1.5-1.3,2.6-1.3c1.1,0,2,0.5,2.6,1.3
		c0.1,0.1,0.1,0.2,0.2,0.3c0.3,0.5,0.4,1,0.4,1.5c0,1.7-1.4,3.2-3.2,3.2s-3.2-1.4-3.2-3.2C11.8,14.4,12,13.9,12.2,13.4z M22.2,20.5
		c0,0.9-0.8,1.7-1.7,1.7h-11c-0.9,0-1.7-0.8-1.7-1.7v-7.3h2.7c-0.1,0.2-0.1,0.3-0.2,0.5c-0.1,0.4-0.2,0.9-0.2,1.3
		c0,2.7,2.2,4.9,4.9,4.9c2.7,0,4.9-2.2,4.9-4.9c0-0.5-0.1-0.9-0.2-1.3c-0.1-0.2-0.1-0.3-0.2-0.5h2.7V20.5z"/>
</g>
</svg>
