<?xml version="1.0" encoding="utf-8"?>
<!-- Generator: Adobe Illustrator 17.1.0, SVG Export Plug-In . SVG Version: 6.00 Build 0)  -->
<svg version="1.2" baseProfile="tiny" id="Layer_1" xmlns="http://www.w3.org/2000/svg" xmlns:xlink="http://www.w3.org/1999/xlink"
	 x="0px" y="0px" viewBox="0 0 12.3 15.6" overflow="auto" xml:space="preserve">
<g>
	<path  d="M6.1,0C2.8,0,0,2.8,0,6.2C0,6.6,0,7,0.1,7.4c0,0,0,0.1,0,0.1c0.7,3,5.4,7.6,5.6,7.8
		c0.1,0.1,0.2,0.1,0.4,0.1c0.1,0,0.3-0.1,0.4-0.1c0.2-0.2,4.9-4.7,5.6-7.7c0,0,0-0.1,0-0.1c0.1-0.4,0.1-0.9,0.1-1.3
		C12.3,2.8,9.5,0,6.1,0L6.1,0z M11.1,7.3L11.1,7.3c-0.5,2.2-3.8,5.7-4.9,6.8C5,13,1.7,9.5,1.2,7.3c0,0,0,0,0-0.1
		c-0.1-0.3-0.1-0.7-0.1-1c0-2.8,2.3-5.1,5.1-5.1c2.8,0,5.1,2.3,5.1,5.1C11.2,6.5,11.2,6.9,11.1,7.3L11.1,7.3z M11.1,7.3"/>
	<rect x="0" y="0" fill="none" width="12.3" height="15.6"/>
	<path d="M6.1,3.5C5,3.5,4.1,4.4,4.1,5.5c0,1.1,0.9,2.1,2.1,2.1c1.1,0,2.1-0.9,2.1-2.1C8.2,4.4,7.3,3.5,6.1,3.5
		L6.1,3.5z M6.1,6.5c-0.5,0-1-0.4-1-1c0-0.5,0.4-1,1-1c0.5,0,1,0.4,1,1C7.1,6.1,6.7,6.5,6.1,6.5L6.1,6.5z M6.1,6.5"/>
</g>
</svg>
