<?xml version="1.0" encoding="utf-8"?>
<!-- Generator: Adobe Illustrator 17.1.0, SVG Export Plug-In . SVG Version: 6.00 Build 0)  -->
<svg version="1.2" baseProfile="tiny" id="Layer_1" xmlns="http://www.w3.org/2000/svg" xmlns:xlink="http://www.w3.org/1999/xlink"
	 x="0px" y="0px" viewBox="0 0 25 26.4" xml:space="preserve">
<g>
	<path d="M21.5,25.5v-1.8c0-0.2-0.2-0.4-0.4-0.4c-0.2,0-0.4,0.2-0.4,0.4v1.8h-0.4v-0.9c0-0.2-0.2-0.4-0.4-0.4
		s-0.4,0.2-0.4,0.4v0.9h-0.4v-1.8c0-0.2-0.2-0.4-0.4-0.4c-0.2,0-0.4,0.2-0.4,0.4v1.8h-0.5c-0.1-2.1-0.6-11.2-4-16.9
		c0.8-0.3,1.3-1.1,1.3-2c0-0.1,0-0.2,0-0.2L16.1,6l0.3-0.7L17,5.8l5.1-1.4L22,4c-0.4-1.6-3.4-2.3-6.3-1.5c-1.4,0.4-2.8,1.1-3.7,2
		c0,0,0,0-0.1,0c-0.6-1.2-1.7-2.4-3.1-3.3C7.5,0.5,6.2,0.1,4.9,0C3.6-0.1,2.7,0.3,2.3,0.9L2,1.3L6.5,4l0.7-0.3l0.1,0.7l0.6,0.3
		c-0.8,0-1.5,0.1-2.3,0.3C4.2,5.5,2.9,6.2,2,7.1C1,7.9,0.6,8.9,0.8,9.6L0.9,10L6,8.7L6.3,8l0.6,0.5L8,8.1C8,8.3,7.9,8.6,7.9,8.8
		c0,1.2,1,2.2,2.2,2.2c0.5,0,1-0.2,1.3-0.5c0.1,0.5,0.2,1,0.2,1.5c0,0.1,0,0.2,0,0.2c0.1,0.6,0.2,1.3,0.3,1.9c0,0,0,0,0,0
		c0.7,5.7,0.3,9.7-1.2,11.4h-0.2v-1.3c0-0.2-0.2-0.4-0.4-0.4c-0.2,0-0.4,0.2-0.4,0.4v1.3H8.3c0.3-0.4,0.5-0.8,0.5-1.3
		c0-1.2-1-2.2-2.2-2.2c-1.2,0-2.2,1-2.2,2.2c0,0.5,0.2,1,0.5,1.3H0v0.9h25v-0.9L21.5,25.5z M5.3,24.2c0-0.7,0.6-1.3,1.3-1.3
		c0.7,0,1.3,0.6,1.3,1.3c0,0.7-0.6,1.3-1.3,1.3C5.9,25.5,5.3,24.9,5.3,24.2L5.3,24.2z M12.2,9.6C12.2,9.5,12.2,9.5,12.2,9.6
		c0.1-0.2,0.1-0.3,0.1-0.4c0-0.1,0-0.3,0-0.4c0,0,0,0,0,0c0,0,0,0,0,0c0.1,0,0.2,0,0.3,0c0.2,0.3,0.3,0.6,0.5,0.9L12.2,9.6
		C12.2,9.6,12.2,9.6,12.2,9.6L12.2,9.6z M12.3,10.5h1.3c0,0,0,0.1,0,0.1c0.1,0.2,0.2,0.4,0.2,0.5c0,0.1,0.1,0.1,0.1,0.2
		c0.1,0.2,0.1,0.3,0.2,0.5c0,0.1,0.1,0.1,0.1,0.2c0.1,0.2,0.1,0.4,0.2,0.6c0.1,0.2,0.1,0.4,0.2,0.5c0,0.1,0,0.1,0.1,0.2
		c0,0.1,0,0.2,0.1,0.2h-2C12.7,12.6,12.5,11.5,12.3,10.5C12.3,10.5,12.3,10.5,12.3,10.5L12.3,10.5z M12.9,14.5h2.2
		c0.3,1,0.5,2.1,0.7,3.1h-2.6C13.1,16.6,13,15.5,12.9,14.5L12.9,14.5z M13.2,18.5h2.8c0.2,1.1,0.3,2.1,0.4,3.1h-3.3
		C13.2,20.6,13.2,19.5,13.2,18.5L13.2,18.5z M12.9,7.9C12.9,7.9,12.9,7.9,12.9,7.9l-0.1,0c-0.4,0-0.7-0.2-0.8-0.3
		c-0.1-0.1-0.2-0.2-0.3-0.4c0,0,0,0,0,0c-0.1-0.1-0.1-0.2-0.1-0.3l0-0.1c0-0.1,0-0.1,0-0.2c0-0.1,0-0.1,0-0.2c0,0,0-0.1,0-0.1l0,0
		c0-0.1,0-0.1,0-0.2c0-0.1,0.1-0.1,0.1-0.2c0,0,0,0,0,0c0.1-0.1,0.2-0.2,0.3-0.3L12,5.5c0.1,0,0.1-0.1,0.2-0.1l0.1,0
		c0.1,0,0.1,0,0.2-0.1c0.1,0,0.1,0,0.2,0c0.1,0,0.2,0,0.2,0c0,0,0.1,0,0.1,0c0,0,0.1,0,0.1,0c0,0,0.1,0,0.1,0c0,0,0.1,0,0.1,0
		c0.3,0.2,0.5,0.4,0.6,0.7l0,0.1c0,0.1,0.1,0.2,0.1,0.4C14.1,7.3,13.5,7.8,12.9,7.9L12.9,7.9z M15.9,3.4c2.2-0.6,4.3-0.2,5,0.5
		l-3.7,1L16,3.9l-0.5,1.4l-0.8,0.2c0,0,0,0,0,0c-0.1-0.1-0.1-0.2-0.2-0.3c0,0,0-0.1-0.1-0.1c-0.1-0.1-0.1-0.1-0.2-0.2
		c0,0-0.1-0.1-0.1-0.1c-0.1-0.1-0.1-0.1-0.2-0.1c0,0-0.1-0.1-0.2-0.1c-0.1,0-0.1-0.1-0.2-0.1c0,0-0.1,0-0.1,0
		C14.1,4,15,3.6,15.9,3.4L15.9,3.4z M6.6,3.1l-3.3-2c0.3-0.2,0.9-0.2,1.5-0.2C6,0.9,7.2,1.4,8.3,2c1.6,0.9,2.5,2.2,2.9,3.1
		c0,0-0.1,0.1-0.1,0.1c0,0-0.1,0.1-0.1,0.1c0,0-0.1,0.1-0.1,0.1c0,0,0,0,0,0c-0.2-0.1-0.5-0.2-0.8-0.3L8.1,4L8,2.5L6.6,3.1z
		 M5.9,6.6L5.4,7.9l-3.7,1c0.1-0.4,0.4-0.8,0.9-1.2c0.8-0.7,2-1.4,3.2-1.7c0.7-0.2,1.5-0.3,2.1-0.3c0.7,0,1.3,0.1,1.8,0.3l0.8,0.5
		c0,0,0,0,0,0.1l-0.3,0.1c0,0,0,0,0,0c-0.1,0-0.1,0-0.2,0c0,0,0,0-0.1,0c-0.1,0-0.2,0-0.3,0c0,0-0.1,0-0.1,0c-0.1,0-0.2,0-0.2,0.1
		c-0.1,0-0.1,0-0.2,0.1c0,0-0.1,0-0.1,0C9,6.9,8.9,6.9,8.9,7L7.1,7.5L5.9,6.6z M10.1,10.1c-0.7,0-1.3-0.6-1.3-1.3
		c0-0.4,0.2-0.8,0.5-1l0,0c0.1,0,0.1-0.1,0.2-0.1c0,0,0,0,0,0c0,0,0.1,0,0.1-0.1c0,0,0.1,0,0.1,0c0,0,0.1,0,0.1,0c0,0,0.1,0,0.1,0
		c0.1,0,0.1,0,0.2,0l0.1,0l0,0c0.2,0,0.4,0.1,0.5,0.2c0,0,0,0,0,0C10.9,7.8,11,7.9,11,8c0,0,0,0,0.1,0.1c0.1,0.1,0.1,0.1,0.2,0.2
		c0,0.1,0.1,0.1,0.1,0.2c0,0,0,0,0,0.1c0,0.1,0,0.2,0,0.3c0,0.2,0,0.4-0.1,0.6v0C11.1,9.8,10.6,10.1,10.1,10.1L10.1,10.1z
		 M11.9,25.5c0.5-0.8,0.8-1.9,1-3.1h3.5c0.1,1.4,0.2,2.5,0.2,3.1H11.9z M11.9,25.5"/>
</g>
</svg>
