<?xml version="1.0" encoding="utf-8"?>
<!-- Generator: Adobe Illustrator 17.1.0, SVG Export Plug-In . SVG Version: 6.00 Build 0)  -->
<svg version="1.2" baseProfile="tiny" id="Layer_1" xmlns="http://www.w3.org/2000/svg" xmlns:xlink="http://www.w3.org/1999/xlink"
	 x="0px" y="0px" viewBox="0 0 15.9 13.6" xml:space="preserve">
<g>
	<path fill="#589CDE" d="M13.9,6.7c-0.1,0-0.1,0-0.2,0L8.4,6V6l2-6L8.8,0.1L7.6,1.9L6.4,3.7L4.9,6v0L1.2,6.3c0,0-1.1,0.2-1.1,0.7
		c0,0.5,1,0.7,1,0.7l4,0.4l1.4,2l1.2,1.8l1.1,1.6l1.7,0.1L8.5,8l5.1-0.5c0.1,0,0.2,0,0.3,0l1.2,1.8h0.8l-0.6-1.8V6.6l0.6-1.9h-0.7
		L13.9,6.7z M13.9,6.7"/>
</g>
</svg>
