<?xml version="1.0" encoding="utf-8"?>
<!-- Generator: Adobe Illustrator 17.1.0, SVG Export Plug-In . SVG Version: 6.00 Build 0)  -->
<svg version="1.2" baseProfile="tiny" id="Layer_1" xmlns="http://www.w3.org/2000/svg" xmlns:xlink="http://www.w3.org/1999/xlink"
	 x="0px" y="0px" viewBox="0 0 30 30" xml:space="preserve">
<g>
	<g>
		<path fill="none" d="M12.6,20.7c5.1,0,9.3-3.9,9.3-8.7c0-4.8-4.2-8.7-9.3-8.7c-5.1,0-9.3,3.9-9.3,8.7C3.3,16.8,7.4,20.7,12.6,20.7
			z"/>
		<path d="M12.6,23.8c2.6,0,5.1-0.7,7.2-2.1l7.5,7.3c0.3,0.3,0.7,0.5,1.2,0.5c0.4,0,0.8-0.2,1.1-0.4
			c0.2-0.2,0.4-0.5,0.4-0.7v-0.7c-0.1-0.3-0.2-0.5-0.4-0.7l-7.4-7.2c1.9-2.1,2.9-4.8,2.9-7.6c0-6.5-5.6-11.8-12.6-11.8
			C5.6,0.2,0,5.5,0,12C0,18.5,5.6,23.8,12.6,23.8z M12.6,3.2c5.1,0,9.3,3.9,9.3,8.7c0,4.8-4.2,8.7-9.3,8.7c-5.1,0-9.3-3.9-9.3-8.7
			C3.3,7.2,7.4,3.2,12.6,3.2z"/>
	</g>
</g>
</svg>
