<?xml version="1.0" encoding="utf-8"?>
<!-- Generator: Adobe Illustrator 17.1.0, SVG Export Plug-In . SVG Version: 6.00 Build 0)  -->
<svg version="1.2" baseProfile="tiny" id="Layer_1" xmlns="http://www.w3.org/2000/svg" xmlns:xlink="http://www.w3.org/1999/xlink"
	 x="0px" y="0px" viewBox="0 0 30 30" xml:space="preserve">
<g>
	<g>
		<ellipse id="XMLID_5_" fill="#FFFFFF" cx="15" cy="15" rx="15" ry="14.9"/>
	</g>
	<path fill-rule="evenodd" fill="#3F4652" d="M14.4,21.6h1.2c0,0,0.4,0,0.5-0.2c0.2-0.2,0.2-0.5,0.2-0.5s0-1.6,0.7-1.8
		c0.7-0.2,1.7,1.5,2.6,2.2c0.7,0.5,1.3,0.4,1.3,0.4l2.6,0c0,0,1.4-0.1,0.7-1.2c-0.1-0.1-0.4-0.8-2-2.3c-1.7-1.5-1.4-1.3,0.6-3.9
		c1.2-1.6,1.7-2.6,1.5-3c-0.1-0.4-1-0.3-1-0.3l-3,0c0,0-0.2,0-0.4,0.1c-0.2,0.1-0.3,0.3-0.3,0.3s-0.5,1.2-1.1,2.3
		c-1.3,2.2-1.8,2.3-2.1,2.2c-0.5-0.3-0.4-1.3-0.4-2c0-2.2,0.3-3.1-0.6-3.3c-0.3-0.1-0.6-0.1-1.4-0.1c-1.1,0-2,0-2.5,0.3
		c-0.3,0.2-0.6,0.5-0.4,0.6c0.2,0,0.6,0.1,0.9,0.4c0.3,0.4,0.3,1.3,0.3,1.3s0.2,2.5-0.4,2.9c-0.4,0.2-0.9-0.2-2.1-2.3
		c-0.6-1-1.1-2.2-1.1-2.2s-0.1-0.2-0.2-0.3c-0.2-0.1-0.5-0.2-0.5-0.2l-2.8,0c0,0-0.4,0-0.6,0.2c-0.1,0.2,0,0.5,0,0.5
		s2.2,5.1,4.7,7.7C11.8,21.7,14.4,21.6,14.4,21.6L14.4,21.6z"/>
</g>
</svg>
