<?xml version="1.0" encoding="utf-8"?>
<!-- Generator: Adobe Illustrator 17.1.0, SVG Export Plug-In . SVG Version: 6.00 Build 0)  -->
<svg version="1.2" baseProfile="tiny" id="Layer_1" xmlns="http://www.w3.org/2000/svg" xmlns:xlink="http://www.w3.org/1999/xlink"
	 x="0px" y="0px" viewBox="0 0 50.1 35.8" xml:space="preserve">
<g>
	<g>
		<polygon fill="#5491FB" points="9.1,0.7 12.2,7.4 20.7,22.2 37.1,21.9 36.6,20.4 31.2,9 		"/>
		<polygon fill="#6199FB" points="42.7,28.5 49.3,18.4 43,18.1 36.6,20.4 34.6,21 37.8,29 		"/>
		<polygon fill="#8EBFFC" points="43,18.1 50.1,23.9 49.3,18.4 		"/>
		<polygon fill="#5491FB" points="7.8,28.6 22.1,35.8 29.6,33.1 17.4,25.6 		"/>
		<polygon fill="#6199FB" points="1.1,4 31,13.2 33.9,28.7 23.5,32.2 17.4,25.6 		"/>
		<polygon fill="#74ACFB" points="40.4,29.3 22.1,35.8 31,13.2 		"/>
		<polygon fill="#8EBFFC" points="42.7,28.5 30.9,32.7 26.1,26.7 		"/>
	</g>
</g>
</svg>
