<?xml version="1.0" encoding="utf-8"?>
<!-- Generator: Adobe Illustrator 17.1.0, SVG Export Plug-In . SVG Version: 6.00 Build 0)  -->
<svg version="1.2" baseProfile="tiny" id="Layer_1" xmlns="http://www.w3.org/2000/svg" xmlns:xlink="http://www.w3.org/1999/xlink"
	 x="0px" y="0px" viewBox="0 0 154.2 37" xml:space="preserve">
<g>
	<g>
		<polygon fill="#5491FB" points="8.1,1 11,7.2 18.8,20.9 34,20.7 33.5,19.2 28.5,8.7 		"/>
		<polygon fill="#6199FB" points="39.2,26.7 45.3,17.4 39.4,17.1 33.5,19.2 31.7,19.8 34.6,27.2 		"/>
		<polygon fill="#8EBFFC" points="39.4,17.1 46,22.5 45.3,17.4 		"/>
		<polygon fill="#5491FB" points="6.9,26.8 20.1,33.5 27,31 15.8,24 		"/>
		<polygon fill="#6199FB" points="0.7,4 28.3,12.6 31.1,27 21.4,30.2 15.8,24 		"/>
		<polygon fill="#74ACFB" points="37.1,27.4 20.1,33.5 28.3,12.6 		"/>
		<polygon fill="#8EBFFC" points="39.2,26.7 28.3,30.6 23.8,25.1 		"/>
	</g>
	<path fill="#5491FB" d="M125.7,18.5c0.3-2-0.7-3-2.1-3.3c-0.5-0.1-1-0.2-1.6-0.2h-4.2l-1.3,8.4l-0.3,1.7h2.7l0.5-3.3h1.4l1.8,3.3
		h2.8l-2.1-3.6C124.5,20.9,125.4,20.1,125.7,18.5z M123,18.4c-0.1,0.7-0.8,1.2-1.5,1.2h-1.6l0,0l0.4-2.3h1.6h0
		C122.6,17.2,123.1,17.6,123,18.4z"/>
	<polygon fill="#5491FB" points="103.9,14.9 99.8,19.7 101.2,21.7 107,14.9 	"/>
	<path fill="none" d="M111.9,17.2h-1.5l-0.4,2.3h1.5c0.9,0,1.5-0.3,1.7-1.2C113.4,17.4,112.6,17.2,111.9,17.2z"/>
	<path fill="none" d="M121.9,17.2h-1.7l-0.4,2.3h1.6c0.8,0,1.4-0.5,1.5-1.2C123.1,17.6,122.6,17.2,121.9,17.2z"/>
	<polygon fill="#FFFFFF" points="58.6,25 61.2,25 61.8,21.4 66,21.4 66.4,19 62.2,19 62.5,17.3 67,17.3 67.4,14.9 60.2,14.9 	"/>
	<polygon fill="#FFFFFF" points="71.7,14.9 69,14.9 67.4,25 74.7,25 75,22.6 70.5,22.6 	"/>
	<polygon fill="#FFFFFF" points="79.3,19.1 77.7,14.9 74.8,14.9 77.7,21.6 77.2,25 79.8,25 80.3,21.6 85.3,14.9 82.2,14.9 	"/>
	<polygon fill="#FFFFFF" points="94.9,21.1 95.2,18.8 91.1,18.8 91.3,17.2 95.9,17.2 96.3,14.9 89,14.9 87.4,25 94.8,25 95.1,22.7 
		90.5,22.7 90.7,21.1 	"/>
	<polygon fill="#FFFFFF" points="101.6,17.6 100.1,14.9 97.2,14.9 99.7,19.8 95.3,25 98.4,25 101.1,21.8 102.6,25 105.6,25 	"/>
	<path fill="#5491FB" d="M112,14.9h-3.9l-1.6,10h2.7l0.5-3.2h1.5c2.6,0,4.3-0.7,4.7-3.3C116.3,15.8,114.4,14.9,112,14.9z
		 M113.2,18.4c-0.1,0.8-0.8,1.2-1.7,1.2H110l0.4-2.3h1.5C112.6,17.2,113.4,17.4,113.2,18.4z"/>
	<polygon fill="#74ACFB" points="135.1,17.2 135.5,14.9 128.3,14.9 126.7,25 134,25 134.3,22.7 129.7,22.7 129.9,21.1 134.1,21.1 
		134.5,18.8 130.3,18.8 130.5,17.2 	"/>
	<path fill="#74ACFB" d="M140.7,17c1,0,2,0.2,2.9,0.9l0.4-2.3c-0.8-0.5-2-0.8-3.3-0.8c-1.9,0-3.8,0.9-4.1,2.8
		c-0.6,3.5,4.6,3,4.4,4.7c-0.1,0.4-0.7,0.7-1.7,0.7c-1.1,0-2.3-0.3-3.3-1.1l-0.4,2.4c1,0.6,2.3,1,3.8,1c2.1,0,3.9-0.6,4.4-2.9
		c0.6-3.5-4.5-3.2-4.4-4.6C139.2,17.3,139.7,17,140.7,17z"/>
	<path fill="#74ACFB" d="M148.2,17.7c0-0.4,0.5-0.7,1.5-0.7c1,0,2,0.2,2.9,0.9l0.4-2.3c-0.8-0.5-2-0.8-3.3-0.8
		c-1.9,0-3.8,0.9-4.1,2.8c-0.6,3.5,4.6,3,4.4,4.7c-0.1,0.4-0.7,0.7-1.7,0.7c-1.1,0-2.3-0.3-3.3-1.1l-0.4,2.4c1,0.6,2.3,1,3.8,1
		c2.1,0,3.9-0.6,4.4-2.9C153.2,18.8,148.1,19,148.2,17.7z"/>
	<path fill="#5491FB" d="M120.2,17.2h1.6l1.8-2.1c-0.5-0.1-1-0.2-1.6-0.2h-4.2l-1.3,8.4l3.3-3.8L120.2,17.2z"/>
	<path fill="#74ACFB" d="M123.6,15.2l-1.8,2.1h0c0.8,0,1.2,0.3,1.1,1.1c-0.1,0.7-0.8,1.2-1.5,1.2h-1.6l0,0l-3.3,3.8l-0.3,1.7h2.7
		l0.5-3.3h1.4l1.8,3.3h2.8l-2.1-3.6c1.2-0.4,2.1-1.3,2.4-2.9C126,16.5,124.9,15.5,123.6,15.2z"/>
</g>
</svg>
