<?xml version="1.0" encoding="utf-8"?>
<!-- Generator: Adobe Illustrator 17.1.0, SVG Export Plug-In . SVG Version: 6.00 Build 0)  -->
<svg version="1.2" baseProfile="tiny" id="Layer_1" xmlns="http://www.w3.org/2000/svg" xmlns:xlink="http://www.w3.org/1999/xlink"
	 x="0px" y="0px" viewBox="0 0 142.8 8.7" xml:space="preserve">
<g>
	<path fill="#2A4669" d="M1.3,5.9L2,1.3H0l0.2-1.1h5.3L5.3,1.3h-2L2.5,5.9H1.3z"/>
	<path fill="#2A4669" d="M10.6,0.2h1.5L8.3,6.7c-0.9,1.5-1.7,2-2.6,2c-0.3,0-0.6,0-0.8-0.1l0.2-1.1c0.2,0.1,0.4,0.1,0.5,0.1
		c0.7,0,1.2-0.5,1.7-1.4l0.2-0.3L5.7,0.2H7l1.3,4.4L10.6,0.2z"/>
	<path fill="#2A4669" d="M16.3,0C18,0,19,1.4,18.7,3.1c-0.2,1.6-1.5,3-3.3,3c-1,0-1.6-0.5-2-1l-0.6,3.5h-1.3L13,0.2h1.1L14,1.1
		C14.5,0.5,15.3,0,16.3,0z M16,1.1c-0.9,0-1.7,0.6-2.1,1.2l-0.2,1.4c0.2,0.6,0.7,1.2,1.6,1.2c1.1,0,2-0.8,2.2-1.9
		C17.6,1.9,17,1.1,16,1.1z"/>
	<path fill="#2A4669" d="M19.5,5.9l0.9-5.8h1.3l-0.6,3.7l3.6-3.7h1.1L25,5.9h-1.3l0.6-3.7l-3.6,3.7H19.5z"/>
	<path fill="#2A4669" d="M30.3,0c0.7,0,1.3,0.2,1.8,0.5l-0.2,1.1c-0.4-0.3-0.9-0.5-1.5-0.5c-1.1,0-2.2,0.5-2.4,1.9
		c-0.2,1.3,0.7,1.9,1.7,1.9c0.6,0,1.2-0.2,1.8-0.5l-0.2,1.2c-0.6,0.3-1.2,0.4-1.9,0.4c-1.6,0-3.1-1-2.7-3.1C27,0.8,28.8,0,30.3,0z"
		/>
	<path fill="#2A4669" d="M33.9,5.9l0.7-4.6h-2l0.2-1.1h5.3l-0.2,1.1h-2l-0.7,4.6H33.9z"/>
	<path fill="#2A4669" d="M38.2,5.9l0.9-5.8h1.3l-0.6,3.7l3.6-3.7h1.1l-0.9,5.8h-1.3l0.6-3.7l-3.6,3.7H38.2z"/>
	<path fill="#2A4669" d="M48.7,5.9L49,4c-0.5,0.2-0.9,0.3-1.6,0.3c-1.2,0-2.2-0.7-2-2.1l0.3-2h1.3l-0.3,2c-0.1,0.8,0.3,1,1.1,1
		c0.5,0,0.9-0.1,1.3-0.3l0.4-2.7h1.3L50,5.9H48.7z"/>
	<path fill="#2A4669" d="M55,0c2.3,0,2.9,1.9,2.2,3.5h-4.3c0,1.1,1,1.4,1.9,1.4c0.8,0,1.5-0.2,2-0.4l-0.2,1.2
		c-0.5,0.2-1.2,0.4-2.1,0.4c-1.6,0-3.2-1.1-2.9-3.1C52,0.9,53.6,0,55,0z M55,1.1c-0.9,0-1.8,0.6-2,1.5h3.2C56.4,2,56.2,1.1,55,1.1z"
		/>
	<path fill="#2A4669" d="M61.8,0c0.7,0,1.3,0.2,1.8,0.5l-0.2,1.1c-0.4-0.3-0.9-0.5-1.5-0.5c-1.1,0-2.2,0.5-2.4,1.9
		c-0.2,1.3,0.7,1.9,1.7,1.9c0.6,0,1.2-0.2,1.8-0.5l-0.2,1.2c-0.6,0.3-1.2,0.4-1.9,0.4c-1.6,0-3.1-1-2.7-3.1C58.6,0.8,60.3,0,61.8,0z
		"/>
	<path fill="#2A4669" d="M64.1,5.9L65,0.2h1.3l-0.3,2.2h1l2-2.2h1.5L67.8,3l1.8,2.9h-1.4l-1.5-2.5h-1l-0.4,2.5H64.1z"/>
	<path fill="#2A4669" d="M72.7,6.1C71,6.1,70,4.6,70.3,3c0.3-1.6,1.6-3,3.3-3c1.1,0,1.7,0.6,2.1,1.1l0.1-1h1.2L76,5.9h-1.2L75,5
		C74.5,5.6,73.8,6.1,72.7,6.1z M73,4.9c0.9,0,1.7-0.6,2.1-1.2l0.2-1.4c-0.2-0.6-0.7-1.2-1.6-1.2c-1.1,0-2,0.8-2.2,1.9
		C71.4,4.1,72,4.9,73,4.9z"/>
	<path fill="#2A4669" d="M77.1,5.9L79,3.8c-0.7-0.3-1.1-0.9-1-1.8c0.2-1,1-1.8,2.5-1.8h2.9l-0.9,5.8h-1.3L81.6,4h-1.3l-1.8,1.9H77.1
		z M80.3,3h1.4L82,1.2h-1.4c-0.8,0-1.3,0.3-1.4,0.9C79.2,2.7,79.6,3,80.3,3z"/>
	<path fill="#2A4669" d="M87,5.9l0.9-5.8h1.3l-0.3,2.2h1l2-2.2h1.5L90.7,3l1.8,2.9h-1.4l-1.5-2.5h-1l-0.4,2.5H87z"/>
	<path fill="#2A4669" d="M95.9,6.1c-1.6,0-3-1.1-2.7-3.1c0.3-2,2-2.9,3.5-2.9c1.6,0,3,1.1,2.7,3.1C99.1,5.1,97.4,6.1,95.9,6.1z
		 M96,4.9c1.1,0,2-0.7,2.2-1.9c0.2-1.1-0.4-1.8-1.5-1.8c-1.1,0-2,0.7-2.2,1.9C94.3,4.2,94.9,4.9,96,4.9z"/>
	<path fill="#2A4669" d="M100.2,5.9l0.9-5.8h1.2l1.5,3l2.4-3h1.4l-0.9,5.8h-1.3l0.6-3.9l-2,2.4h-0.8L102.1,2l-0.6,3.9H100.2z"/>
	<path fill="#2A4669" d="M108.3,5.9l0.9-5.8h5.4l-0.9,5.8h-1.3l0.7-4.6h-2.9l-0.7,4.6H108.3z"/>
	<path fill="#2A4669" d="M117.9,6.1c-1.7,0-2.7-1.4-2.4-3.1c0.3-1.6,1.6-3,3.3-3c1.1,0,1.7,0.6,2.1,1.1l0.1-1h1.2l-0.9,5.8h-1.2
		l0.2-0.9C119.7,5.6,119,6.1,117.9,6.1z M118.2,4.9c0.9,0,1.7-0.6,2.1-1.2l0.2-1.4c-0.2-0.6-0.7-1.2-1.6-1.2c-1.1,0-2,0.8-2.2,1.9
		C116.6,4.1,117.2,4.9,118.2,4.9z"/>
	<path fill="#2A4669" d="M122.8,5.9l0.9-5.8h1.3l-0.4,2.3h2.9l0.4-2.3h1.3l-0.9,5.8H127l0.4-2.3h-2.9l-0.4,2.3H122.8z"/>
	<path fill="#2A4669" d="M129.8,5.9l0.9-5.8h1.3l-0.6,3.7l3.6-3.7h1.1l-0.9,5.8H134l0.6-3.7L131,5.9H129.8z"/>
	<path fill="#2A4669" d="M136.4,5.9l1.9-2.1c-0.7-0.3-1.1-0.9-1-1.8c0.2-1,1-1.8,2.5-1.8h2.9l-0.9,5.8h-1.3l0.3-1.9h-1.3l-1.8,1.9
		H136.4z M139.6,3h1.4l0.3-1.8H140c-0.8,0-1.3,0.3-1.4,0.9C138.5,2.7,138.9,3,139.6,3z"/>
</g>
</svg>
